<?xml version="1.0" standalone="no"?>
<!DOCTYPE svg PUBLIC "-//W3C//DTD SVG 20010904//EN"
 "http://www.w3.org/TR/2001/REC-SVG-20010904/DTD/svg10.dtd">
<svg version="1.0" xmlns="http://www.w3.org/2000/svg"
 width="768.000000pt" height="768.000000pt" viewBox="0 0 768.000000 768.000000"
 preserveAspectRatio="xMidYMid meet">
<metadata>
Created by potrace 1.11, written by Peter Selinger 2001-2013
</metadata>
<g transform="translate(0.000000,768.000000) scale(0.100000,-0.100000)"
fill="#000000" stroke="none">
<path d="M3123 6912 l-53 -3 0 -190 0 -189 -192 0 -193 0 0 -192 0 -193 -190
0 -190 0 -1 -1148 c0 -631 3 -1150 8 -1153 4 -3 90 -5 192 -5 l184 -1 -1 -381
-2 -382 -38 -3 c-21 -2 -46 3 -55 10 -11 9 -14 9 -9 1 6 -10 -58 -12 -290 -12
-164 0 -315 0 -335 -1 l-38 0 0 -190 0 -190 -189 0 c-142 0 -190 -3 -193 -12
-4 -11 -3 -350 1 -369 0 -3 79 -5 174 -5 94 1 180 0 190 -3 16 -3 18 -19 17
-191 l-2 -187 -171 -1 c-95 0 -182 -1 -194 -1 l-23 -1 0 -189 0 -190 -186 0
c-102 0 -188 -1 -190 -4 -3 -2 -5 -141 -4 -308 0 -167 0 -512 0 -766 l0 -463
2690 0 2690 0 0 498 c1 767 0 1036 -4 1039 -2 2 -87 4 -189 4 l-186 1 -1 186
c0 102 -3 188 -5 190 -3 3 -90 4 -194 4 l-188 -2 -2 187 c-1 103 -4 190 -7
193 -3 3 -87 6 -187 6 -100 1 -270 2 -377 3 l-196 2 -1 189 0 188 183 0 c101
0 187 3 192 6 5 3 9 83 8 178 -1 95 0 179 2 186 3 9 51 12 193 12 l189 0 0
163 c0 89 1 262 0 385 0 189 3 222 15 222 8 0 15 6 15 13 0 7 5 5 10 -5 8 -12
17 -15 38 -9 15 4 65 6 112 5 92 -1 113 2 103 19 -3 6 -1 7 6 3 8 -5 9 -12 2
-20 -8 -9 -2 -11 24 -8 19 2 35 9 35 16 0 6 5 4 10 -4 9 -13 11 -13 20 0 7 11
10 11 10 2 0 -17 41 -12 56 7 9 11 12 12 19 1 5 -9 4 -11 -3 -6 -7 4 -12 2
-12 -5 0 -7 9 -9 22 -6 12 3 30 2 40 -4 14 -8 18 -6 18 8 0 11 3 14 8 7 5 -8
55 -11 155 -10 82 0 151 -2 153 -6 5 -8 25 -3 60 14 14 6 20 17 17 28 -3 10
-1 20 4 23 5 3 8 -6 7 -20 0 -13 -7 -29 -15 -34 -12 -7 -12 -9 1 -9 9 0 22 6
29 13 11 9 12 9 7 0 -5 -9 16 -12 88 -10 81 2 93 4 83 16 -9 12 -9 13 1 7 7
-4 12 -2 12 6 0 8 -6 20 -12 27 -10 11 -10 13 0 7 8 -5 12 2 12 26 0 19 -6 40
-12 47 -11 11 -10 12 1 6 11 -6 13 -4 8 8 -3 9 -1 18 6 21 9 3 9 5 0 5 -6 1
-9 10 -6 20 3 10 0 28 -6 39 -6 12 -7 23 -2 26 14 9 13 157 -1 174 -10 13 -10
14 0 8 8 -5 12 0 12 16 0 13 -6 30 -12 37 -10 11 -10 13 0 7 7 -4 12 -2 12 6
0 8 -6 20 -12 27 -11 11 -10 12 0 7 10 -6 12 5 10 51 -2 41 -7 57 -16 55 -8
-1 -11 2 -7 8 3 6 11 8 16 5 5 -4 9 7 9 24 0 16 -6 32 -12 34 -10 4 -10 6 0 6
8 1 12 22 12 72 0 53 3 68 13 63 10 -6 10 -4 0 7 -8 8 -13 42 -13 87 0 56 3
71 13 66 8 -6 8 -3 -1 9 -9 10 -13 35 -10 67 3 50 3 50 -27 51 -16 0 -272 0
-567 1 -397 0 -538 3 -538 12 0 6 -5 4 -10 -4 -6 -10 -10 118 -9 372 l0 388
122 -1 c67 0 154 0 192 0 l70 1 -1 378 c-1 207 -2 380 -3 385 0 4 -87 7 -191
7 l-191 0 1 186 c1 102 -1 188 -4 191 -5 5 -2545 10 -2633 5z m2703 -2317 c-1
-8 -6 -18 -11 -22 -4 -4 -5 -2 0 6 6 10 2 12 -16 7 -24 -7 -24 -7 1 8 14 9 26
15 27 16 1 0 0 -7 -1 -15z m38 2 c-3 -9 3 -13 18 -13 19 1 22 -4 20 -23 -3
-16 0 -21 9 -16 8 5 10 4 5 -4 -11 -17 -28 -1 -23 21 5 16 2 19 -14 15 -21 -6
-34 7 -24 23 9 15 15 12 9 -3z m81 3 c3 -5 1 -10 -4 -10 -6 0 -11 5 -11 10 0
6 2 10 4 10 3 0 8 -4 11 -10z m87 -8 c-7 -2 -9 -9 -5 -15 3 -7 2 -8 -2 -4 -16
14 -14 36 3 29 10 -4 12 -7 4 -10z m73 8 c3 -5 1 -10 -4 -10 -6 0 -11 5 -11
10 0 6 2 10 4 10 3 0 8 -4 11 -10z m87 -8 c-7 -2 -9 -9 -5 -15 3 -7 2 -8 -2
-4 -16 14 -14 36 3 29 10 -4 12 -7 4 -10z m58 8 c0 -5 -5 -10 -11 -10 -5 0 -7
5 -4 10 3 6 8 10 11 10 2 0 4 -4 4 -10z m54 -20 c-5 -4 -18 -4 -29 1 -18 9
-18 9 3 5 15 -3 22 1 23 12 0 12 2 13 6 4 3 -8 1 -17 -3 -22z m76 24 c0 -8
-19 -13 -24 -6 -3 5 1 9 9 9 8 0 15 -2 15 -3z m46 -11 c-2 -9 -8 -19 -14 -21
-7 -2 -10 -9 -6 -15 3 -7 -1 -4 -9 5 -8 10 -18 14 -22 10 -5 -4 -5 -2 -2 5 4
6 16 9 27 6 12 -3 20 -2 19 3 -2 13 0 24 5 24 2 0 3 -8 2 -17z m44 7 c0 -5 -5
-10 -11 -10 -5 0 -7 5 -4 10 3 6 8 10 11 10 2 0 4 -4 4 -10z m74 -20 c-5 -4
-18 -4 -29 1 -18 9 -18 9 3 5 15 -3 22 1 23 12 0 12 2 13 6 4 3 -8 1 -17 -3
-22z m48 12 c-7 -2 -9 -9 -5 -15 3 -7 2 -8 -2 -4 -16 14 -14 36 3 29 10 -4 12
-7 4 -10z m85 -4 c-3 -8 -6 -5 -6 6 -1 11 2 17 5 13 3 -3 4 -12 1 -19z m67 10
c-3 -5 -10 -6 -15 -3 -5 4 -9 1 -9 -6 0 -7 -3 -10 -6 -6 -9 9 3 24 20 24 8 0
13 -4 10 -9z m52 -4 c-9 -6 -15 -13 -13 -15 1 -2 0 -3 -2 -1 -14 8 -6 28 11
28 17 0 17 -2 4 -12z m69 7 c-9 -8 -36 -10 -30 -2 2 4 11 8 20 8 8 0 13 -3 10
-6z m17 -23 c-7 -7 -12 -8 -12 -2 0 14 12 26 19 19 2 -3 -1 -11 -7 -17z m-881
-21 c-5 -5 -17 -4 -28 2 -16 11 -16 11 4 6 19 -5 22 -3 17 12 -5 15 -4 15 5 3
6 -8 6 -19 2 -23z m65 21 c4 -7 3 -8 -4 -4 -15 9 -15 1 -1 -27 9 -20 9 -20 -4
-5 -8 10 -18 14 -22 10 -4 -4 -2 3 4 16 13 25 17 27 27 10z m95 -21 c-5 -5
-17 -4 -28 2 -16 11 -16 11 4 6 19 -5 22 -3 17 12 -5 15 -4 15 5 3 6 -8 6 -19
2 -23z m65 21 c4 -7 3 -8 -4 -4 -15 9 -15 1 -1 -27 9 -20 9 -20 -4 -5 -8 10
-18 14 -22 10 -4 -4 -2 3 4 16 13 25 17 27 27 10z m121 5 c-4 -3 -1 -11 6 -17
7 -6 10 -10 8 -9 -2 2 -9 -4 -15 -13 -10 -13 -11 -10 -10 13 3 34 2 33 11 33
3 0 3 -3 0 -7z m279 -5 c4 -7 4 -10 -1 -6 -4 4 -14 0 -22 -10 -13 -15 -13 -15
-3 6 12 25 16 27 26 10z m142 -9 c10 -13 10 -18 0 -22 -8 -3 -14 5 -14 20 -1
13 -1 23 0 21 1 -2 7 -10 14 -19z m55 -10 c-4 -16 -8 -17 -14 -7 -5 7 -4 14 1
16 6 2 7 9 4 14 -4 6 -2 8 4 5 5 -4 8 -16 5 -28z m-742 -2 c-10 -9 -11 -8 -5
6 3 10 9 15 12 12 3 -3 0 -11 -7 -18z m371 16 c-6 -2 -9 -10 -6 -15 4 -7 2 -8
-5 -4 -13 9 -5 26 12 25 9 0 8 -2 -1 -6z m412 -8 c3 -8 1 -15 -4 -15 -6 0 -10
7 -10 15 0 8 2 15 4 15 2 0 6 -7 10 -15z m-1064 -1 c0 -8 -19 -13 -24 -6 -3 5
1 9 9 9 8 0 15 -2 15 -3z m50 2 c0 -3 -4 -8 -10 -11 -5 -3 -10 -1 -10 4 0 6 5
11 10 11 6 0 10 -2 10 -4z m420 -10 c0 -23 -16 -27 -31 -8 -13 16 -13 16 5 2
18 -14 19 -13 13 3 -3 9 -2 17 3 17 6 0 10 -6 10 -14z m236 -3 c-2 -9 -8 -19
-14 -21 -7 -2 -10 -9 -6 -15 3 -7 -1 -4 -9 5 -8 10 -18 14 -22 10 -5 -4 -5 -2
-2 5 4 6 16 9 27 6 16 -4 19 -2 14 11 -3 9 -2 16 4 16 6 0 9 -8 8 -17z m74 -5
c11 -22 10 -22 -4 -4 -16 19 -16 19 -29 1 -11 -14 -16 -15 -22 -5 -5 8 -4 11
2 7 6 -4 13 0 17 8 8 22 24 18 36 -7z m94 11 c3 -3 -5 -5 -19 -5 -13 0 -22 3
-19 7 4 8 30 6 38 -2z m36 1 c0 -5 -4 -10 -10 -10 -5 0 -10 5 -10 10 0 6 5 10
10 10 6 0 10 -4 10 -10z m23 -5 c-3 -9 -8 -14 -10 -11 -3 3 -2 9 2 15 9 16 15
13 8 -4z m-909 -11 c3 -8 2 -12 -4 -9 -6 3 -10 10 -10 16 0 14 7 11 14 -7z
m44 -22 c-2 -10 7 -25 22 -34 14 -10 21 -18 15 -18 -21 1 -49 31 -50 54 0 13
3 22 8 19 4 -3 7 -12 5 -21z m97 7 c-6 -32 -12 -34 -12 -4 0 14 3 25 8 25 4 0
6 -10 4 -21z m160 0 c-6 -32 -12 -34 -12 -4 0 14 3 25 8 25 4 0 6 -10 4 -21z
m179 -6 c0 -15 -6 -29 -12 -31 -7 -2 -10 -7 -8 -11 3 -4 -5 -8 -17 -8 -19 -2
-18 0 6 16 15 10 24 20 21 24 -6 6 1 37 9 37 1 0 2 -12 1 -27z m136 5 c10 -21
10 -21 -3 -6 -8 10 -18 14 -22 10 -5 -4 -5 -1 -1 6 10 17 14 15 26 -10z m210
1 c0 -4 -6 -11 -12 -15 -7 -4 -10 -4 -6 1 4 4 0 14 -10 21 -15 12 -15 12 6 7
12 -3 22 -9 22 -14z m195 11 c3 -5 1 -10 -4 -10 -6 0 -11 5 -11 10 0 6 2 10 4
10 3 0 8 -4 11 -10z m47 3 c-6 -2 -10 -9 -7 -13 3 -5 0 -12 -6 -16 -8 -4 -9
-3 -5 4 4 7 1 12 -6 12 -9 0 -9 3 2 10 8 5 20 9 25 9 6 0 4 -3 -3 -6z m-1089
-16 c7 3 8 2 4 -2 -14 -16 -36 -14 -29 3 4 10 7 12 10 4 2 -7 9 -9 15 -5z
m237 -18 c-12 -22 -16 -23 -26 -7 -4 7 -3 8 4 4 11 -7 17 6 13 27 -1 5 3 6 9
2 7 -4 7 -12 0 -26z m160 0 c-12 -22 -16 -23 -26 -7 -4 7 -3 8 4 4 11 -7 17 6
13 27 -1 5 3 6 9 2 7 -4 7 -12 0 -26z m169 24 c-3 -21 2 -33 13 -27 7 5 8 3 3
-6 -6 -10 -11 -9 -21 5 -7 10 -11 22 -8 26 6 11 14 12 13 2z m319 -18 c0 -14
-4 -25 -8 -25 -5 0 -7 8 -5 18 2 9 4 20 4 25 2 18 9 4 9 -18z m-680 1 c-7 -8
-15 -12 -17 -11 -5 6 10 25 20 25 5 0 4 -6 -3 -14z m75 -6 c-20 -23 -20 -23
-29 -8 -4 6 -3 8 3 5 6 -4 13 0 17 8 3 8 10 15 16 15 5 0 2 -9 -7 -20z m85 6
c-7 -8 -15 -12 -17 -11 -5 6 10 25 20 25 5 0 4 -6 -3 -14z m247 1 c15 -12 16
-15 4 -22 -8 -5 -10 -4 -6 0 4 5 -3 15 -15 22 -13 7 -18 12 -12 13 5 0 18 -6
29 -13z m139 -6 c-10 -11 -24 -17 -37 -13 -11 3 -18 1 -14 -4 3 -6 1 -16 -4
-24 -7 -11 -8 -8 -6 10 3 17 10 25 23 25 10 0 23 6 27 13 4 6 12 12 17 12 6 0
3 -8 -6 -19z m44 5 c-10 -7 -14 -17 -10 -21 4 -5 1 -5 -7 0 -12 7 -11 10 4 22
24 17 36 17 13 -1z m152 4 c0 -5 -4 -10 -10 -10 -5 0 -10 5 -10 10 0 6 5 10
10 10 6 0 10 -4 10 -10z m30 0 c0 -5 -5 -10 -11 -10 -5 0 -7 5 -4 10 3 6 8 10
11 10 2 0 4 -4 4 -10z m37 -12 c-3 -8 -6 -5 -6 6 -1 11 2 17 5 13 3 -3 4 -12
1 -19z m-912 2 c-3 -5 -1 -10 6 -10 7 0 10 -3 6 -6 -9 -9 -28 6 -22 17 4 5 8
9 11 9 3 0 2 -4 -1 -10z m346 -10 c6 0 7 5 3 12 -4 7 -3 8 5 4 6 -4 9 -12 6
-17 -7 -10 -41 -7 -52 6 -5 4 -2 5 5 1 7 -4 12 -2 13 6 0 10 2 10 6 1 2 -7 9
-13 14 -13z m-391 -20 c8 -5 11 -10 5 -10 -5 0 -21 10 -35 21 -24 20 -5 13 30
-11z m478 16 c-10 -7 -16 -15 -13 -18 3 -2 -2 -5 -12 -5 -13 0 -11 4 7 19 12
10 25 18 29 18 3 0 -2 -7 -11 -14z m125 -6 c-6 -22 -18 -26 -29 -8 -4 6 -3 8
3 5 6 -4 13 0 17 8 8 22 15 18 9 -5z m163 8 c4 -7 3 -8 -4 -4 -7 4 -12 0 -12
-10 0 -10 -3 -15 -6 -11 -7 6 2 37 10 37 3 0 8 -5 12 -12z m173 -30 c-11 -21
-15 -22 -25 -6 -4 7 -3 8 4 4 12 -7 16 4 13 34 -2 13 0 13 8 1 6 -10 6 -21 0
-33z m61 38 c0 -2 -7 -6 -15 -10 -8 -3 -15 -1 -15 4 0 6 7 10 15 10 8 0 15 -2
15 -4z m-1046 -21 c11 -8 16 -15 10 -15 -5 0 -18 7 -28 15 -11 8 -16 15 -10
15 5 0 18 -7 28 -15z m947 -10 c-12 -6 -18 -15 -14 -20 4 -4 2 -5 -6 0 -12 7
-11 10 2 20 9 7 14 15 10 19 -4 4 1 4 11 0 17 -7 17 -8 -3 -19z m-976 -3 c-3
-3 -11 0 -18 7 -9 10 -8 11 6 5 10 -3 15 -9 12 -12z m220 10 c-3 -3 3 -10 12
-17 13 -10 14 -13 2 -20 -8 -5 -11 -5 -7 0 4 4 -2 15 -14 25 -17 14 -18 17 -5
17 10 0 15 -3 12 -5z m42 1 c-4 -3 1 -12 11 -20 15 -13 15 -13 -6 -3 -19 9
-23 30 -5 30 4 0 3 -3 0 -7z m159 -2 c-3 -5 0 -11 8 -14 9 -4 12 -14 9 -29 -5
-19 -3 -21 8 -10 7 6 17 12 23 12 5 0 1 -6 -9 -14 -24 -17 -38 -10 -32 14 3
11 -2 21 -10 24 -12 5 -10 26 3 26 3 0 3 -4 0 -9z m159 0 c3 -6 -5 -15 -17
-21 -21 -10 -21 -10 -6 3 10 8 15 17 11 20 -3 4 -4 7 0 7 3 0 8 -4 12 -9z m45
-12 c0 -5 -7 -9 -16 -9 -9 0 -12 -5 -8 -12 5 -7 3 -8 -6 -3 -10 6 -10 11 3 20
9 7 13 16 9 20 -4 5 -1 5 6 1 6 -4 12 -11 12 -17z m150 11 c-8 -5 -19 -10 -25
-10 -5 0 -3 5 5 10 8 5 20 10 25 10 6 0 3 -5 -5 -10z m103 -4 c3 -8 3 -17 0
-20 -10 -10 -33 -7 -33 4 0 5 8 6 18 3 15 -6 15 -5 3 10 -7 9 -9 17 -3 17 5 0
12 -6 15 -14z m201 -1 c-4 -8 -8 -15 -10 -15 -2 0 -4 7 -4 15 0 8 4 15 10 15
5 0 7 -7 4 -15z m-161 -16 c-8 -8 -13 -7 -18 2 -5 8 -4 10 3 5 7 -4 12 -2 12
5 0 7 3 9 7 6 4 -4 2 -12 -4 -18z m-775 -3 c-7 -8 -15 -12 -17 -11 -5 6 10 25
20 25 5 0 4 -6 -3 -14z m49 8 c-3 -3 -12 -4 -19 -1 -8 3 -5 6 6 6 11 1 17 -2
13 -5z m156 -1 c-7 -2 -19 -2 -25 0 -7 3 -2 5 12 5 14 0 19 -2 13 -5z m52 -2
c3 -5 0 -13 -6 -17 -7 -4 -9 -3 -5 4 3 6 -2 13 -11 15 -16 4 -16 5 -1 6 9 0
19 -3 23 -8z m339 -36 c14 0 20 -7 20 -27 1 -14 -2 -24 -7 -21 -5 3 -6 14 -4
25 5 16 2 19 -13 15 -13 -3 -24 3 -35 19 -21 32 -19 45 3 14 9 -14 26 -25 36
-25z m0 29 c3 -8 2 -12 -4 -9 -6 3 -10 10 -10 16 0 14 7 11 14 -7z m46 6 c0
-5 -8 -10 -17 -10 -15 0 -16 2 -3 10 19 12 20 12 20 0z m257 -20 c-3 -11 1
-21 9 -24 8 -3 14 -10 14 -16 0 -6 -8 -4 -17 5 -17 17 -26 68 -10 58 5 -3 7
-13 4 -23z m58 20 c3 -5 1 -10 -4 -10 -6 0 -11 5 -11 10 0 6 2 10 4 10 3 0 8
-4 11 -10z m-1075 -10 c0 -5 -2 -10 -4 -10 -3 0 -8 5 -11 10 -3 6 -1 10 4 10
6 0 11 -4 11 -10z m75 -19 c2 -11 0 -21 -4 -21 -5 0 -8 11 -8 25 0 30 6 28 12
-4z m400 0 c2 -11 0 -21 -4 -21 -5 0 -8 11 -8 25 0 30 6 28 12 -4z m65 -8 c0
-1 -5 -5 -12 -9 -6 -4 -8 -3 -5 3 4 6 0 13 -8 17 -8 3 -15 10 -15 16 0 5 9 2
20 -7 11 -10 20 -18 20 -20z m240 22 c0 -8 -4 -15 -10 -15 -5 0 -7 7 -4 15 4
8 8 15 10 15 2 0 4 -7 4 -15z m34 0 c3 -8 1 -15 -4 -15 -6 0 -10 7 -10 15 0 8
2 15 4 15 2 0 6 -7 10 -15z m-674 -5 c0 -5 -2 -10 -4 -10 -3 0 -8 5 -11 10 -3
6 -1 10 4 10 6 0 11 -4 11 -10z m34 -5 c-4 -10 0 -13 16 -10 12 2 23 -2 27
-10 3 -8 10 -12 16 -8 6 3 7 1 3 -5 -10 -16 -26 -15 -26 2 0 8 -10 13 -22 12
-14 -1 -24 6 -26 17 -2 9 1 17 7 17 6 0 8 -7 5 -15z m126 0 c0 -8 -2 -15 -4
-15 -2 0 -6 7 -10 15 -3 8 -1 15 4 15 6 0 10 -7 10 -15z m34 0 c-4 -8 -8 -15
-10 -15 -2 0 -4 7 -4 15 0 8 4 15 10 15 5 0 7 -7 4 -15z m313 2 c2 -3 -8 -4
-22 -4 -14 0 -25 3 -25 8 0 7 38 4 47 -4z m228 4 c3 -6 -5 -15 -17 -21 -21
-10 -21 -10 -6 3 10 8 15 17 11 20 -3 4 -4 7 0 7 3 0 8 -4 12 -9z m28 -11
c-10 -11 -19 -20 -21 -20 -1 0 2 9 8 20 6 11 15 20 20 20 6 0 2 -9 -7 -20z
m77 5 c0 -1 -12 -2 -26 -2 -17 0 -22 2 -13 7 10 7 39 3 39 -5z m-1005 -4 c3
-5 0 -13 -6 -17 -7 -4 -9 -3 -5 4 3 5 0 13 -6 15 -9 4 -10 6 -1 6 6 1 14 -3
18 -8z m68 2 c-7 -2 -19 -2 -25 0 -7 3 -2 5 12 5 14 0 19 -2 13 -5z m233 -11
c1 -7 0 -8 -3 -2 -2 5 -9 10 -14 10 -6 0 -7 -5 -3 -12 4 -7 3 -8 -5 -4 -14 9
-4 29 12 23 6 -2 12 -9 13 -15z m779 8 c-3 -5 1 -10 9 -10 9 0 16 -5 16 -10 0
-7 -7 -7 -20 0 -17 9 -20 30 -4 30 3 0 2 -4 -1 -10z m-1069 -28 c-17 -16 -18
-16 -5 5 7 12 15 20 18 17 3 -2 -3 -12 -13 -22z m129 9 c-3 -6 -11 -11 -16
-11 -5 0 -4 6 3 14 14 16 24 13 13 -3z m245 9 c0 -5 -4 -10 -10 -10 -5 0 -10
5 -10 10 0 6 5 10 10 10 6 0 10 -4 10 -10z m240 -7 c0 -3 -7 -2 -16 1 -11 4
-14 0 -12 -16 2 -15 -3 -24 -14 -26 -10 -2 -18 1 -18 7 0 6 7 7 17 4 11 -4 14
-3 9 6 -12 18 1 42 19 35 8 -3 15 -8 15 -11z m74 -15 c-3 -4 -11 -8 -17 -7 -9
0 -9 2 0 5 7 3 9 13 6 22 -4 14 -3 14 5 2 6 -8 8 -18 6 -22z m-534 7 c0 -8 -4
-15 -10 -15 -5 0 -7 7 -4 15 4 8 8 15 10 15 2 0 4 -7 4 -15z m253 1 c7 3 4 -1
-5 -9 -10 -8 -14 -18 -10 -22 4 -5 2 -5 -5 -2 -6 4 -9 17 -5 29 3 12 7 17 10
10 2 -7 9 -10 15 -6z m414 8 c-3 -3 -12 -4 -19 -1 -8 3 -5 6 6 6 11 1 17 -2
13 -5z m148 -13 c-3 -6 -11 -11 -16 -11 -5 0 -4 6 3 14 14 16 24 13 13 -3z
m-911 -3 c-3 -5 -9 -6 -14 -3 -4 3 -11 -1 -13 -7 -4 -8 -6 -7 -6 4 -1 11 6 16
18 15 11 0 17 -5 15 -9z m289 -19 c-8 -8 -13 -7 -18 2 -6 8 -4 10 5 4 10 -6
12 -4 6 11 -6 15 -5 17 5 7 9 -10 10 -16 2 -24z m107 11 c-12 -22 -25 -26 -35
-10 -4 6 1 7 11 3 11 -4 15 -3 11 4 -6 9 1 17 21 22 1 1 -2 -8 -8 -19z m74 12
c2 -4 0 -14 -6 -22 -8 -12 -9 -12 -4 3 6 20 3 21 -27 6 -21 -10 -21 -10 -3 5
22 18 32 20 40 8z m371 -10 c-3 -3 -11 0 -18 7 -9 10 -8 11 6 5 10 -3 15 -9
12 -12z m135 1 c0 -3 -7 -3 -15 1 -8 3 -15 0 -15 -6 0 -6 -3 -9 -6 -5 -11 10
6 26 21 20 8 -3 15 -7 15 -10z m-739 -13 c6 0 7 5 3 12 -5 7 -3 8 5 3 9 -5 9
-11 3 -17 -12 -12 -32 -2 -31 15 0 9 2 9 6 0 2 -7 9 -13 14 -13z m572 7 c7 3
10 4 7 0 -3 -3 -8 -5 -12 -4 -4 1 -14 -7 -23 -18 -14 -19 -15 -18 -3 9 7 15
14 23 16 17 2 -6 9 -8 15 -4z m-862 -20 c-10 -9 -11 -8 -5 6 3 10 9 15 12 12
3 -3 0 -11 -7 -18z m64 13 c-6 -9 8 -14 28 -11 5 1 6 -3 2 -9 -4 -7 -12 -7
-26 0 -17 9 -19 30 -3 30 3 0 2 -4 -1 -10z m105 0 c0 -5 -5 -10 -11 -10 -5 0
-7 5 -4 10 3 6 8 10 11 10 2 0 4 -4 4 -10z m480 0 c0 -5 -4 -10 -10 -10 -5 0
-10 5 -10 10 0 6 5 10 10 10 6 0 10 -4 10 -10z m280 1 c0 -6 -4 -12 -8 -15 -5
-3 -9 1 -9 9 0 8 4 15 9 15 4 0 8 -4 8 -9z m-800 -11 c-8 -5 -10 -10 -5 -10 6
0 2 -7 -8 -14 -18 -14 -18 -15 0 -25 10 -6 13 -11 7 -11 -6 0 -17 6 -23 14
-10 11 -8 17 6 25 10 6 14 11 10 11 -13 0 3 20 16 20 7 0 6 -4 -3 -10z m407
-12 c-3 -8 -6 -5 -6 6 -1 11 2 17 5 13 3 -3 4 -12 1 -19z m183 -9 c-12 -22
-16 -23 -26 -7 -4 7 -3 8 4 4 11 -7 17 6 13 27 -1 5 3 6 9 2 7 -4 7 -12 0 -26z
m54 14 c4 -10 4 -14 0 -10 -4 4 -12 -1 -19 -10 -9 -13 -14 -13 -20 -3 -5 8 -4
11 3 6 6 -3 13 3 17 14 8 24 11 25 19 3z m36 7 c0 -5 -2 -10 -4 -10 -3 0 -8 5
-11 10 -3 6 -1 10 4 10 6 0 11 -4 11 -10z m233 -3 c3 -8 2 -20 -3 -26 -5 -9
-7 -4 -7 13 0 29 2 32 10 13z m42 3 c3 -5 1 -10 -4 -10 -6 0 -11 5 -11 10 0 6
2 10 4 10 3 0 8 -4 11 -10z m-1039 -12 c4 -7 3 -8 -4 -4 -7 4 -12 2 -12 -5 0
-7 -3 -10 -6 -6 -6 5 3 27 11 27 2 0 7 -5 11 -12z m148 -7 c-10 -11 -24 -17
-37 -13 -15 4 -18 2 -12 -8 5 -9 4 -11 -4 -6 -17 11 -2 29 19 23 11 -3 21 1
24 9 3 8 10 14 16 14 5 0 3 -8 -6 -19z m76 9 c0 -4 -12 -7 -26 -7 -14 0 -21 3
-15 7 7 3 18 7 26 7 8 0 15 -4 15 -7z m85 -7 c-17 -17 -68 -26 -58 -10 3 5 13
7 23 4 11 -3 21 1 24 9 3 8 10 14 16 14 6 0 4 -8 -5 -17z m59 9 c2 -4 -5 -9
-17 -9 -17 -2 -19 0 -7 7 18 12 18 12 24 2z m56 -2 c0 -5 -4 -10 -10 -10 -5 0
-10 5 -10 10 0 6 5 10 10 10 6 0 10 -4 10 -10z m30 0 c0 -5 -2 -10 -4 -10 -3
0 -8 5 -11 10 -3 6 -1 10 4 10 6 0 11 -4 11 -10z m117 4 c-3 -3 -12 -4 -19 -1
-8 3 -5 6 6 6 11 1 17 -2 13 -5z m71 -8 c-7 -8 -15 -12 -17 -11 -5 6 10 25 20
25 5 0 4 -6 -3 -14z m212 -1 c0 -1 -12 -2 -26 -2 -17 0 -22 2 -13 7 10 7 39 3
39 -5z m55 5 c3 -5 1 -10 -4 -10 -6 0 -11 5 -11 10 0 6 2 10 4 10 3 0 8 -4 11
-10z m35 0 c0 -5 -4 -10 -10 -10 -5 0 -10 5 -10 10 0 6 5 10 10 10 6 0 10 -4
10 -10z m-345 -10 c3 -5 1 -10 -4 -10 -6 0 -11 5 -11 10 0 6 2 10 4 10 3 0 8
-4 11 -10z m-635 -10 c0 -5 -7 -7 -15 -4 -8 4 -15 8 -15 10 0 2 7 4 15 4 8 0
15 -4 15 -10z m53 -5 c-3 -9 -8 -14 -10 -11 -3 3 -2 9 2 15 9 16 15 13 8 -4z
m143 0 c-3 -8 0 -15 6 -15 6 0 9 -3 5 -6 -10 -11 -26 6 -20 21 3 8 7 15 10 15
3 0 3 -7 -1 -15z m374 11 c0 -2 -7 -6 -15 -10 -8 -3 -15 -1 -15 4 0 6 7 10 15
10 8 0 15 -2 15 -4z m230 -6 c0 -5 -4 -10 -10 -10 -5 0 -10 5 -10 10 0 6 5 10
10 10 6 0 10 -4 10 -10z m120 0 c0 -5 -4 -10 -10 -10 -5 0 -10 5 -10 10 0 6 5
10 10 10 6 0 10 -4 10 -10z m135 0 c-3 -5 2 -10 11 -10 10 0 15 -3 11 -6 -10
-10 -39 5 -32 16 3 5 8 10 11 10 3 0 2 -4 -1 -10z m-652 -14 c3 -8 0 -17 -7
-19 -10 -4 -12 1 -9 14 6 23 9 24 16 5z m46 -16 c11 -24 11 -24 -3 -6 -9 11
-16 24 -16 30 0 12 5 7 19 -24z m418 8 c-3 -8 -6 -5 -6 6 -1 11 2 17 5 13 3
-3 4 -12 1 -19z m88 12 c-3 -5 -12 -10 -18 -10 -7 0 -6 4 3 10 19 12 23 12 15
0z m30 -9 c-3 -6 -11 -11 -16 -11 -5 0 -4 6 3 14 14 16 24 13 13 -3z m-1000
-1 c3 -6 -1 -7 -9 -4 -18 7 -21 14 -7 14 6 0 13 -4 16 -10z m37 -7 c-6 -3 -9
-10 -6 -15 4 -7 2 -8 -5 -4 -9 6 -9 11 0 22 6 8 15 12 18 8 3 -4 0 -9 -7 -11z
m338 2 c0 -8 -2 -15 -4 -15 -2 0 -6 7 -10 15 -3 8 -1 15 4 15 6 0 10 -7 10
-15z m132 -4 c-1 -8 7 -11 20 -9 17 2 23 -2 23 -17 0 -11 11 -28 25 -37 31
-22 18 -24 -14 -3 -15 10 -22 23 -19 34 3 13 -1 18 -19 17 -15 -1 -22 4 -20
13 2 9 -3 11 -13 7 -10 -3 -14 -2 -10 5 9 13 31 5 27 -10z m82 4 c-4 -8 -8
-15 -10 -15 -2 0 -4 7 -4 15 0 8 4 15 10 15 5 0 7 -7 4 -15z m50 7 c3 -5 -1
-9 -9 -9 -8 0 -15 4 -15 9 0 4 4 8 9 8 6 0 12 -4 15 -8z m36 -2 c0 -5 -4 -10
-10 -10 -5 0 -10 5 -10 10 0 6 5 10 10 10 6 0 10 -4 10 -10z m35 -8 c-3 -3
-11 0 -18 7 -9 10 -8 11 6 5 10 -3 15 -9 12 -12z m40 0 c-3 -3 -11 0 -18 7 -9
10 -8 11 6 5 10 -3 15 -9 12 -12z m95 8 c0 -5 -5 -10 -11 -10 -5 0 -7 -5 -3
-12 4 -7 3 -8 -4 -4 -6 4 -9 13 -5 21 6 17 23 20 23 5z m-535 -9 c3 -5 0 -13
-6 -17 -7 -4 -9 -3 -5 4 3 6 -3 12 -16 15 -23 4 -23 4 -1 6 12 0 24 -3 28 -8z
m718 -12 c-8 -8 -13 -7 -18 2 -5 8 -4 10 3 5 7 -4 12 -2 12 5 0 7 3 9 7 6 4
-4 2 -12 -4 -18z m-908 -12 c9 -9 11 -17 5 -17 -6 0 -13 6 -16 14 -3 8 -13 12
-24 9 -10 -3 -20 -1 -23 4 -10 16 41 7 58 -10z m135 13 c0 -5 -4 -10 -10 -10
-5 0 -10 5 -10 10 0 6 5 10 10 10 6 0 10 -4 10 -10z m78 -16 c0 -17 -3 -22 -8
-13 -5 6 -6 18 -3 26 8 19 11 16 11 -13z m116 10 c3 -8 2 -12 -4 -9 -6 3 -10
10 -10 16 0 14 7 11 14 -7z m166 -5 c0 -6 -4 -7 -10 -4 -5 3 -10 11 -10 16 0
6 5 7 10 4 6 -3 10 -11 10 -16z m193 8 c3 -8 2 -20 -3 -26 -5 -9 -7 -4 -7 13
0 29 2 32 10 13z m109 -13 c8 -16 8 -17 -4 -4 -7 9 -20 14 -30 12 -9 -2 -18 1
-21 5 -3 5 6 8 20 7 14 0 29 -9 35 -20z m68 10 c0 -2 -7 -4 -15 -4 -8 0 -15 4
-15 10 0 5 7 7 15 4 8 -4 15 -8 15 -10z m80 -4 c-12 -23 -16 -24 -26 -8 -4 6
-3 8 3 5 6 -4 13 0 17 8 3 8 8 15 11 15 3 0 1 -9 -5 -20z m-1058 -4 c6 4 5 -2
-1 -15 -13 -24 -17 -25 -27 -9 -5 7 -3 8 6 3 9 -5 11 -1 6 16 -3 13 -3 18 0
11 3 -6 10 -9 16 -6z m646 -12 c0 -17 -3 -22 -8 -13 -5 6 -6 18 -3 26 8 19 11
16 11 -13z m45 13 c3 -7 -3 -13 -14 -14 -15 -1 -16 1 -6 12 15 18 14 18 20 2z
m37 9 c0 -3 -4 -8 -10 -11 -5 -3 -10 -1 -10 4 0 6 5 11 10 11 6 0 10 -2 10 -4z
m50 -12 c0 -2 -7 -4 -15 -4 -8 0 -15 4 -15 10 0 5 7 7 15 4 8 -4 15 -8 15 -10z
m157 -6 c-3 -8 -6 -5 -6 6 -1 11 2 17 5 13 3 -3 4 -12 1 -19z m-891 3 c-4 -5
-1 -11 6 -13 14 -5 20 -38 6 -38 -6 0 -7 7 -4 16 5 13 2 15 -14 11 -11 -3 -23
0 -27 5 -3 6 -1 8 4 5 6 -4 13 0 17 8 3 8 8 15 11 15 4 0 4 -4 1 -9z m128 -3
c-3 -4 -11 -5 -19 -1 -21 7 -19 12 4 10 11 0 18 -5 15 -9z m36 -7 c0 -5 -10
-11 -22 -14 -21 -5 -21 -5 -6 7 10 7 14 17 10 21 -4 5 -1 5 6 1 6 -4 12 -11
12 -15z m78 1 c2 -7 -1 -12 -8 -12 -6 0 -9 4 -6 9 4 5 1 12 -4 14 -6 3 -5 4 2
3 6 -1 14 -8 16 -14z m102 8 c0 -5 -4 -10 -10 -10 -5 0 -10 5 -10 10 0 6 5 10
10 10 6 0 10 -4 10 -10z m30 0 c0 -5 -5 -10 -11 -10 -5 0 -7 5 -4 10 3 6 8 10
11 10 2 0 4 -4 4 -10z m75 0 c4 -6 3 -10 -2 -9 -21 4 -34 -2 -27 -13 5 -7 3
-8 -6 -3 -10 6 -9 11 5 22 22 16 22 16 30 3z m90 0 c3 -5 1 -10 -4 -10 -6 0
-11 5 -11 10 0 6 2 10 4 10 3 0 8 -4 11 -10z m261 1 c-4 -5 -1 -11 6 -13 7 -3
2 -7 -10 -10 -12 -4 -25 -1 -29 4 -3 6 -1 8 4 5 6 -4 13 0 17 8 3 8 8 15 11
15 4 0 4 -4 1 -9z m-596 -11 c0 -5 -5 -10 -11 -10 -5 0 -7 5 -4 10 3 6 8 10
11 10 2 0 4 -4 4 -10z m771 -13 c-8 -8 -14 -7 -23 2 -11 10 -9 11 6 5 15 -6
17 -4 11 6 -6 9 -4 11 4 5 9 -5 10 -10 2 -18z m-912 -15 c-1 -15 -2 -15 -6 1
-2 9 -9 14 -15 11 -7 -4 -8 -2 -4 5 10 15 26 4 25 -17z m36 18 c-3 -5 -1 -10
6 -10 7 0 10 -3 6 -6 -9 -9 -28 6 -22 17 4 5 8 9 11 9 3 0 2 -4 -1 -10z m301
-24 c2 -14 1 -26 -3 -26 -5 0 -9 14 -9 31 -2 35 5 33 12 -5z m176 12 c-7 -7
-16 -6 -29 1 -16 11 -15 11 6 5 17 -4 21 -3 16 6 -6 9 -4 11 4 5 9 -5 9 -11 3
-17z m108 12 c0 -5 -4 -10 -10 -10 -5 0 -10 5 -10 10 0 6 5 10 10 10 6 0 10
-4 10 -10z m179 -18 c-1 -15 -2 -15 -6 1 -2 9 -9 14 -15 11 -7 -4 -8 -2 -4 5
10 15 26 4 25 -17z m71 24 c0 -2 -7 -6 -15 -10 -8 -3 -15 -1 -15 4 0 6 7 10
15 10 8 0 15 -2 15 -4z m74 -15 c-10 -10 -21 -16 -24 -14 -3 3 4 11 14 19 28
20 33 17 10 -5z m-692 -13 c-7 -7 -12 -8 -12 -2 0 14 12 26 19 19 2 -3 -1 -11
-7 -17z m51 3 c-4 -3 -11 -10 -15 -15 -4 -4 -6 1 -5 12 1 12 6 18 15 15 7 -3
10 -9 5 -12z m72 0 c-3 -6 -11 -11 -16 -11 -5 0 -4 6 3 14 14 16 24 13 13 -3z
m452 -13 c-3 -7 -5 -2 -5 12 0 14 2 19 5 13 2 -7 2 -19 0 -25z m-932 3 c-3 -6
-11 -11 -16 -11 -5 0 -4 6 3 14 14 16 24 13 13 -3z m340 -36 c0 -13 -3 -21 -8
-18 -5 3 -7 13 -4 23 3 11 -1 21 -9 24 -8 3 -14 10 -14 16 0 22 34 -22 35 -45z
m205 38 c0 -3 -7 -2 -16 1 -12 5 -15 2 -10 -11 6 -14 4 -15 -5 -6 -14 14 -3
34 16 26 8 -3 15 -7 15 -10z m141 4 c-7 -7 -14 -8 -21 -1 -6 6 -2 10 12 11 16
2 18 -1 9 -10z m79 3 c0 -5 -7 -7 -15 -4 -8 4 -15 8 -15 10 0 2 7 4 15 4 8 0
15 -4 15 -10z m30 -13 c-9 -7 -14 -19 -12 -29 2 -9 -1 -18 -5 -21 -14 -9 -8
39 8 55 8 9 16 14 19 11 3 -2 -2 -10 -10 -16z m70 13 c0 -5 -4 -10 -10 -10 -5
0 -10 5 -10 10 0 6 5 10 10 10 6 0 10 -4 10 -10z m120 0 c0 -5 -4 -10 -10 -10
-5 0 -10 5 -10 10 0 6 5 10 10 10 6 0 10 -4 10 -10z m95 0 c3 -5 1 -10 -4 -10
-6 0 -11 5 -11 10 0 6 2 10 4 10 3 0 8 -4 11 -10z m-901 -21 c-3 -6 -13 -9
-22 -7 -10 2 -23 -3 -30 -12 -11 -13 -12 -12 -3 7 8 15 17 20 32 16 17 -5 20
-3 14 7 -5 9 -4 11 4 6 6 -4 9 -12 5 -17z m449 0 c-8 -8 -13 -7 -18 2 -5 8 -4
10 3 5 7 -4 12 -2 12 5 0 7 3 9 7 6 4 -4 2 -12 -4 -18z m-543 1 c0 -5 -8 -10
-17 -10 -15 0 -16 2 -3 10 19 12 20 12 20 0z m167 4 c-3 -3 -12 -4 -19 -1 -8
3 -5 6 6 6 11 1 17 -2 13 -5z m48 -3 c3 -5 0 -13 -6 -17 -7 -4 -9 -3 -5 4 3 6
-2 13 -11 15 -16 4 -16 5 -1 6 9 0 19 -3 23 -8z m368 -11 c9 -11 13 -20 7 -20
-5 0 -14 9 -20 20 -6 11 -9 20 -8 20 2 0 11 -9 21 -20z m159 13 c-6 -2 -9 -10
-6 -15 4 -7 2 -8 -5 -4 -13 9 -5 26 12 25 9 0 8 -2 -1 -6z m58 -3 c0 -5 -8
-10 -17 -10 -15 0 -16 2 -3 10 19 12 20 12 20 0z m74 -6 c3 -8 2 -12 -4 -9 -6
3 -10 10 -10 16 0 14 7 11 14 -7z m62 4 c4 -7 4 -10 -1 -6 -4 4 -14 0 -22 -10
-8 -9 -12 -11 -8 -4 3 6 0 12 -7 13 -10 0 3 9 29 18 1 1 5 -5 9 -11z m40 0 c4
-7 3 -8 -4 -4 -11 7 -17 -6 -13 -27 1 -5 -3 -6 -9 -2 -7 4 -7 12 0 26 12 22
16 23 26 7z m-959 -20 c-3 -8 -6 -5 -6 6 -1 11 2 17 5 13 3 -3 4 -12 1 -19z
m458 -7 c2 -11 0 -21 -4 -21 -5 0 -8 11 -8 25 0 30 6 28 12 -4z m40 19 c3 -5
1 -10 -4 -10 -6 0 -11 5 -11 10 0 6 2 10 4 10 3 0 8 -4 11 -10z m302 -22 c-3
-7 -5 -2 -5 12 0 14 2 19 5 13 2 -7 2 -19 0 -25z m-912 12 c3 -6 -1 -7 -9 -4
-18 7 -21 14 -7 14 6 0 13 -4 16 -10z m35 6 c0 -3 -4 -8 -10 -11 -5 -3 -10 -1
-10 4 0 6 5 11 10 11 6 0 10 -2 10 -4z m200 -11 c0 -8 -2 -15 -4 -15 -2 0 -6
7 -10 15 -3 8 -1 15 4 15 6 0 10 -7 10 -15z m34 0 c-4 -8 -8 -15 -10 -15 -2 0
-4 7 -4 15 0 8 4 15 10 15 5 0 7 -7 4 -15z m145 5 c-6 -5 -18 -6 -26 -3 -19 8
-16 11 13 11 17 0 22 -3 13 -8z m101 0 c0 -4 -12 -7 -26 -7 -14 0 -21 3 -15 7
7 3 18 7 26 7 8 0 15 -4 15 -7z m229 0 c-6 -5 -18 -6 -26 -3 -19 8 -16 11 13
11 17 0 22 -3 13 -8z m223 -12 c24 5 31 -14 10 -29 -16 -13 -16 -13 -2 5 14
18 13 19 -8 14 -16 -5 -25 -1 -33 15 -9 19 -8 20 3 7 7 -9 20 -14 30 -12z
m-512 -9 c0 -5 -4 -9 -8 -9 -5 0 -9 7 -9 15 0 8 4 12 9 9 4 -3 8 -9 8 -15z
m320 16 c0 -2 -10 -9 -22 -15 -22 -11 -22 -10 -4 4 21 17 26 19 26 11z m-720
-9 c0 -3 -4 -8 -10 -11 -5 -3 -10 -1 -10 4 0 6 5 11 10 11 6 0 10 -2 10 -4z
m40 -6 c0 -5 -7 -7 -15 -4 -8 4 -15 8 -15 10 0 2 7 4 15 4 8 0 15 -4 15 -10z
m66 -2 c4 -7 3 -8 -4 -4 -7 4 -12 2 -12 -5 0 -7 -3 -10 -6 -6 -6 5 3 27 11 27
2 0 7 -5 11 -12z m54 2 c0 -5 -7 -7 -15 -4 -8 4 -15 8 -15 10 0 2 7 4 15 4 8
0 15 -4 15 -10z m97 -16 c1 -15 1 -15 -3 -2 -3 10 -11 15 -20 11 -8 -3 -14 -1
-14 5 0 19 35 5 37 -14z m79 14 c5 -7 3 -8 -6 -3 -10 6 -12 4 -7 -9 4 -10 3
-15 -3 -11 -6 3 -10 1 -10 -6 0 -7 -3 -10 -6 -7 -5 6 13 48 21 48 2 0 7 -5 11
-12z m239 3 c3 -5 0 -13 -6 -17 -7 -4 -9 -3 -5 4 3 5 0 13 -6 15 -9 4 -10 6
-1 6 6 1 14 -3 18 -8z m36 -23 c-10 -11 -11 -9 -5 6 6 15 4 17 -6 11 -9 -6
-11 -4 -5 4 5 9 10 10 18 2 8 -8 7 -14 -2 -23z m44 22 c-3 -5 -1 -10 5 -10 6
0 8 -4 5 -10 -10 -16 -23 -11 -20 8 5 23 4 22 11 22 3 0 2 -4 -1 -10z m145 6
c0 -3 -4 -8 -10 -11 -5 -3 -10 -1 -10 4 0 6 5 11 10 11 6 0 10 -2 10 -4z m40
-6 c0 -5 -7 -7 -15 -4 -8 4 -15 8 -15 10 0 2 7 4 15 4 8 0 15 -4 15 -10z m138
-15 c-3 -3 -9 2 -12 12 -6 14 -5 15 5 6 7 -7 10 -15 7 -18z m-1036 -27 c-6 -6
-12 -6 -17 3 -6 8 -4 10 5 4 9 -5 10 -1 6 16 -6 21 -6 22 5 6 7 -13 8 -22 1
-29z m128 7 c0 -5 -5 -3 -10 5 -5 8 -10 20 -10 25 0 6 5 3 10 -5 5 -8 10 -19
10 -25z m370 27 c0 -5 -6 -16 -13 -27 -11 -14 -16 -15 -22 -5 -6 9 -4 11 5 5
10 -6 12 -4 7 9 -4 10 -3 15 3 11 6 -3 10 -1 10 4 0 6 2 11 5 11 3 0 5 -4 5
-8z m42 -6 c7 4 8 2 4 -4 -11 -18 -26 -14 -25 6 0 10 3 12 6 4 2 -6 10 -9 15
-6z m291 -20 c-4 -5 1 -7 10 -3 10 3 17 2 17 -4 0 -22 -33 -3 -37 21 -2 18 -1
21 6 10 5 -8 7 -18 4 -24z m-748 14 c3 -5 2 -10 -4 -10 -5 0 -13 5 -16 10 -3
6 -2 10 4 10 5 0 13 -4 16 -10z m121 -2 c5 -7 3 -8 -6 -3 -10 6 -12 4 -7 -9 4
-10 3 -15 -3 -11 -13 8 -13 35 -1 35 6 0 13 -5 17 -12z m54 6 c0 -8 -19 -13
-24 -6 -3 5 1 9 9 9 8 0 15 -2 15 -3z m77 -16 c-3 -8 -6 -5 -6 6 -1 11 2 17 5
13 3 -3 4 -12 1 -19z m103 12 c8 -5 11 -10 5 -10 -5 0 -17 5 -25 10 -8 5 -10
10 -5 10 6 0 17 -5 25 -10z m323 -5 c-3 -9 -8 -14 -10 -11 -3 3 -2 9 2 15 9
16 15 13 8 -4z m122 5 c3 -6 -1 -7 -9 -4 -18 7 -21 14 -7 14 6 0 13 -4 16 -10z
m184 -4 c9 -11 9 -16 0 -22 -8 -4 -9 -3 -5 4 4 7 2 12 -3 12 -6 0 -11 5 -11
10 0 14 5 13 19 -4z m-1009 -17 c0 -5 -4 -9 -8 -9 -5 0 -9 7 -9 15 0 8 4 12 9
9 4 -3 8 -9 8 -15z m238 -4 c-3 -3 -9 2 -12 12 -6 14 -5 15 5 6 7 -7 10 -15 7
-18z m504 11 c7 4 8 2 4 -5 -9 -13 -26 -5 -25 12 0 9 2 8 6 -1 2 -6 10 -9 15
-6z m-517 -22 c8 -10 14 -23 15 -29 0 -5 -8 1 -18 15 -9 15 -24 24 -34 22 -9
-2 -18 1 -21 5 -11 18 44 5 58 -13z m130 5 c-6 -32 -12 -34 -12 -4 0 14 3 25
8 25 4 0 6 -10 4 -21z m108 1 c9 -11 13 -20 7 -20 -5 0 -14 9 -20 20 -6 11 -9
20 -8 20 2 0 11 -9 21 -20z m32 10 c-6 -9 8 -14 28 -11 5 1 6 -3 2 -9 -4 -7
-12 -7 -26 0 -17 9 -19 30 -3 30 3 0 2 -4 -1 -10z m56 -13 c-10 -9 -11 -8 -5
6 3 10 9 15 12 12 3 -3 0 -11 -7 -18z m99 7 c0 -2 -7 -4 -15 -4 -8 0 -15 4
-15 10 0 5 7 7 15 4 8 -4 15 -8 15 -10z m30 6 c0 -5 -5 -10 -11 -10 -5 0 -7 5
-4 10 3 6 8 10 11 10 2 0 4 -4 4 -10z m200 0 c0 -5 -4 -10 -10 -10 -5 0 -10 5
-10 10 0 6 5 10 10 10 6 0 10 -4 10 -10z m55 -14 c-1 -23 -35 -68 -35 -46 0 6
7 13 15 16 8 4 12 10 9 16 -5 8 1 38 9 38 1 0 2 -11 2 -24z m33 10 c-10 -7
-14 -17 -10 -21 4 -5 1 -5 -7 0 -12 7 -11 10 4 22 24 17 36 17 13 -1z m69 -6
c-2 -11 -6 -22 -9 -26 -4 -3 -5 2 -3 13 2 10 4 21 4 26 1 4 3 7 6 7 3 0 4 -9
2 -20z m-924 -15 c-7 -21 -12 -19 -10 4 0 11 5 18 9 15 4 -3 5 -11 1 -19z
m467 10 c0 -8 -4 -15 -10 -15 -5 0 -7 7 -4 15 4 8 8 15 10 15 2 0 4 -7 4 -15z
m34 0 c3 -8 1 -15 -4 -15 -6 0 -10 7 -10 15 0 8 2 15 4 15 2 0 6 -7 10 -15z
m206 0 c0 -8 -4 -15 -10 -15 -5 0 -7 7 -4 15 4 8 8 15 10 15 2 0 4 -7 4 -15z
m34 0 c3 -8 1 -15 -4 -15 -6 0 -10 7 -10 15 0 8 2 15 4 15 2 0 6 -7 10 -15z
m-884 1 c0 -2 -7 -7 -16 -10 -8 -3 -12 -2 -9 4 6 10 25 14 25 6z m55 -6 c3 -5
1 -10 -4 -10 -6 0 -11 5 -11 10 0 6 2 10 4 10 3 0 8 -4 11 -10z m35 0 c0 -5
-4 -10 -10 -10 -5 0 -10 5 -10 10 0 6 5 10 10 10 6 0 10 -4 10 -10z m96 1 c-4
-5 -1 -11 6 -13 7 -3 2 -7 -10 -10 -12 -4 -25 -1 -29 4 -3 6 -1 8 4 5 6 -4 13
0 17 8 3 8 8 15 11 15 4 0 4 -4 1 -9z m114 5 c0 -3 -4 -8 -10 -11 -5 -3 -10
-1 -10 4 0 6 5 11 10 11 6 0 10 -2 10 -4z m30 -6 c0 -5 -4 -10 -10 -10 -5 0
-10 5 -10 10 0 6 5 10 10 10 6 0 10 -4 10 -10z m97 3 c-4 -3 1 -11 10 -18 13
-9 13 -14 3 -20 -9 -5 -11 -4 -6 3 4 7 1 12 -8 12 -9 0 -16 4 -16 8 0 10 11
22 18 22 3 0 2 -3 -1 -7z m329 -7 c3 -8 13 -12 24 -9 10 3 20 1 23 -4 9 -15
-44 -7 -54 8 -8 12 -11 11 -19 -3 -7 -10 -17 -14 -32 -10 -16 4 -19 2 -13 -8
5 -9 4 -11 -4 -6 -17 11 -2 29 19 23 11 -3 21 1 24 9 3 8 10 14 16 14 6 0 13
-6 16 -14z m284 -1 c0 -2 -9 -3 -19 -2 -11 0 -18 5 -15 9 4 6 34 0 34 -7z
m-1010 -16 c0 -5 -4 -9 -8 -9 -5 0 -9 7 -9 15 0 8 4 12 9 9 4 -3 8 -9 8 -15z
m895 0 c-4 -5 -14 -8 -23 -8 -15 1 -15 2 1 6 9 2 14 9 11 15 -4 7 -2 8 5 4 6
-4 9 -12 6 -17z m-676 -17 c-1 -15 -2 -15 -6 1 -2 9 -9 14 -15 11 -7 -4 -8 -2
-4 5 10 15 26 4 25 -17z m232 -9 c-11 -16 -11 -15 -5 6 4 17 3 21 -6 16 -9 -6
-11 -4 -5 4 5 9 11 9 17 3 7 -7 6 -16 -1 -29z m42 20 c-4 -10 -2 -14 5 -9 6 3
14 1 18 -5 4 -8 3 -9 -4 -5 -7 4 -12 1 -12 -6 0 -8 -5 -6 -11 5 -5 9 -7 22 -4
27 10 16 15 12 8 -7z m49 10 c-6 -2 -9 -10 -6 -15 4 -7 2 -8 -5 -4 -13 9 -5
26 12 25 9 0 8 -2 -1 -6z m-618 -19 c3 -8 2 -12 -4 -9 -6 3 -10 10 -10 16 0
14 7 11 14 -7z m102 1 c-11 -8 -25 -15 -30 -15 -6 1 0 7 14 15 32 19 40 18 16
0z m54 -4 c0 -4 -6 -8 -14 -8 -8 0 -12 6 -9 14 5 13 23 9 23 -6z m248 6 c14 4
14 3 2 -5 -16 -12 -30 -7 -29 11 0 9 2 9 5 0 3 -7 13 -9 22 -6z m269 7 c-3 -3
-12 -4 -19 -1 -8 3 -5 6 6 6 11 1 17 -2 13 -5z m246 -1 c-7 -2 -19 -2 -25 0
-7 3 -2 5 12 5 14 0 19 -2 13 -5z m162 -22 c-6 -5 -25 10 -25 20 0 5 6 4 14
-3 8 -7 12 -15 11 -17z m-1047 -1 c-7 -10 -14 -18 -15 -16 -6 6 9 36 18 36 5
0 4 -9 -3 -20z m152 -3 c-9 -7 -14 -19 -12 -29 2 -9 -1 -18 -5 -21 -14 -9 -8
39 8 55 8 9 16 14 19 11 3 -2 -2 -10 -10 -16z m70 13 c0 -5 -4 -10 -10 -10 -5
0 -10 5 -10 10 0 6 5 10 10 10 6 0 10 -4 10 -10z m95 -1 c11 -16 1 -19 -13 -3
-7 8 -8 14 -3 14 5 0 13 -5 16 -11z m75 -12 c-8 -7 -15 -21 -15 -31 0 -14 -7
-20 -27 -20 -14 -1 -24 2 -21 7 3 5 14 6 25 4 14 -4 18 -1 16 12 -3 17 23 53
32 44 3 -2 -2 -10 -10 -16z m225 5 c-3 -3 -11 0 -18 7 -9 10 -8 11 6 5 10 -3
15 -9 12 -12z m128 -2 c-10 -11 -19 -20 -21 -20 -1 0 2 9 8 20 6 11 15 20 20
20 6 0 2 -9 -7 -20z m45 6 c-10 -7 -14 -17 -10 -21 4 -5 1 -5 -7 0 -12 7 -11
10 4 22 24 17 36 17 13 -1z m211 -9 c0 -9 -2 -9 -5 0 -3 7 -13 9 -22 6 -14 -4
-14 -3 -2 5 16 12 30 7 29 -11z m-160 -17 c10 -21 10 -22 -1 -9 -7 9 -17 16
-21 17 -5 0 -12 4 -15 8 -4 4 -1 4 6 0 7 -4 12 -2 12 5 0 15 4 11 19 -21z
m-823 11 c-3 -5 1 -11 9 -15 8 -3 15 -10 15 -16 0 -5 -9 -2 -19 7 -17 14 -20
33 -5 33 3 0 3 -4 0 -9z m62 -16 c0 -30 -7 -28 -13 4 -2 11 0 21 4 21 5 0 9
-11 9 -25z m117 15 c4 -6 -1 -7 -11 -3 -13 5 -15 3 -9 -7 5 -9 4 -11 -4 -6 -6
4 -9 12 -6 17 8 12 22 12 30 -1z m45 0 c0 -5 -8 -10 -17 -10 -15 0 -16 2 -3
10 19 12 20 12 20 0z m218 -13 c2 -10 -1 -17 -7 -17 -6 0 -8 6 -5 13 3 8 -4
13 -16 14 -12 1 -18 -2 -14 -9 4 -7 2 -8 -5 -4 -17 11 -3 26 22 22 12 -1 23
-10 25 -19z m62 13 c0 -5 -4 -10 -10 -10 -5 0 -10 5 -10 10 0 6 5 10 10 10 6
0 10 -4 10 -10z m80 -7 c0 -3 -7 -2 -16 1 -13 5 -15 2 -11 -13 5 -19 -28 -51
-50 -51 -4 0 4 8 20 18 15 10 24 21 21 25 -12 12 5 37 21 31 8 -3 15 -8 15
-11z m88 3 c-10 -7 -14 -17 -10 -21 4 -5 1 -5 -5 -1 -18 10 -16 24 5 29 27 7
28 7 10 -7z m392 4 c0 -5 -4 -10 -10 -10 -5 0 -10 5 -10 10 0 6 5 10 10 10 6
0 10 -4 10 -10z m-823 -32 c-3 -7 -5 -2 -5 12 0 14 2 19 5 13 2 -7 2 -19 0
-25z m623 22 c0 -5 -2 -10 -4 -10 -3 0 -8 5 -11 10 -3 6 -1 10 4 10 6 0 11 -4
11 -10z m40 1 c0 -5 -7 -11 -14 -14 -10 -4 -13 -1 -9 9 6 15 23 19 23 5z m38
-17 c0 -17 -3 -22 -8 -13 -5 6 -6 18 -3 26 8 19 11 16 11 -13z m-995 1 c-3 -9
-8 -14 -10 -11 -3 3 -2 9 2 15 9 16 15 13 8 -4z m152 5 c3 -6 -1 -7 -9 -4 -18
7 -21 14 -7 14 6 0 13 -4 16 -10z m209 -2 c-3 -4 -11 -5 -19 -1 -21 7 -19 12
4 10 11 0 18 -5 15 -9z m171 2 c3 -5 1 -10 -4 -10 -6 0 -11 5 -11 10 0 6 2 10
4 10 3 0 8 -4 11 -10z m45 0 c0 -5 -5 -10 -11 -10 -5 0 -7 5 -4 10 3 6 8 10
11 10 2 0 4 -4 4 -10z m200 -15 c0 -2 -5 -7 -12 -11 -7 -4 -8 -3 -4 4 7 11 -6
17 -27 13 -5 -1 -6 3 -2 9 6 9 45 -3 45 -15z m80 10 c0 -1 -12 -2 -26 -2 -17
0 -22 2 -13 7 10 7 39 3 39 -5z m200 5 c0 -5 -4 -10 -10 -10 -5 0 -10 5 -10
10 0 6 5 10 10 10 6 0 10 -4 10 -10z m30 0 c0 -5 -5 -10 -11 -10 -5 0 -7 5 -4
10 3 6 8 10 11 10 2 0 4 -4 4 -10z m-1038 -14 c7 4 8 2 4 -5 -9 -13 -26 -5
-25 12 0 9 2 8 6 -1 2 -6 10 -9 15 -6z m1065 -1 c0 -8 -4 -15 -9 -15 -10 0
-11 14 -1 23 9 10 10 9 10 -8z m-891 -7 c4 -7 3 -8 -4 -4 -7 4 -12 2 -12 -5 0
-7 -3 -10 -6 -6 -6 5 3 27 11 27 2 0 7 -5 11 -12z m54 2 c0 -5 -7 -7 -15 -4
-8 4 -15 8 -15 10 0 2 7 4 15 4 8 0 15 -4 15 -10z m55 0 c-3 -5 0 -10 7 -11
10 0 10 -2 1 -6 -7 -2 -13 -9 -13 -14 0 -6 5 -7 12 -3 7 4 8 3 4 -5 -11 -18
-26 -3 -22 22 6 28 5 27 12 27 3 0 2 -4 -1 -10z m139 -6 c3 -8 2 -12 -4 -9 -6
3 -10 10 -10 16 0 14 7 11 14 -7z m206 6 c0 -5 -4 -10 -10 -10 -5 0 -10 5 -10
10 0 6 5 10 10 10 6 0 10 -4 10 -10z m240 0 c0 -5 -4 -10 -10 -10 -5 0 -10 5
-10 10 0 6 5 10 10 10 6 0 10 -4 10 -10z m52 -12 c-5 -5 -18 -8 -28 -5 -15 4
-14 5 4 6 15 1 21 5 16 13 -5 7 -3 8 5 3 8 -5 9 -11 3 -17z m-525 -10 c-3 -8
-6 -5 -6 6 -1 11 2 17 5 13 3 -3 4 -12 1 -19z m70 16 c-3 -3 -12 -4 -19 -1 -8
3 -5 6 6 6 11 1 17 -2 13 -5z m46 -1 c-7 -2 -19 -2 -25 0 -7 3 -2 5 12 5 14 0
19 -2 13 -5z m197 -28 c0 -5 -5 -3 -10 5 -5 8 -10 20 -10 25 0 6 5 3 10 -5 5
-8 10 -19 10 -25z m84 19 c3 -8 2 -12 -4 -9 -6 3 -10 1 -10 -6 0 -7 -2 -10 -5
-7 -5 5 4 38 10 38 2 0 6 -7 9 -16z m193 -3 c-1 -15 -4 -17 -14 -9 -15 12 -17
22 -3 13 6 -3 10 -1 10 4 0 6 2 11 4 11 3 0 4 -9 3 -19z m38 -3 c-9 -6 -19 -7
-22 -4 -4 3 -1 6 6 6 7 0 9 4 6 10 -4 6 1 7 11 3 15 -6 15 -7 -1 -15z m-935 2
c0 -5 -4 -10 -10 -10 -5 0 -10 5 -10 10 0 6 5 10 10 10 6 0 10 -4 10 -10z
m108 -4 c-7 -8 -15 -12 -17 -11 -5 6 10 25 20 25 5 0 4 -6 -3 -14z m52 9 c0
-2 -10 -9 -22 -15 -22 -11 -22 -10 -4 4 21 17 26 19 26 11z m79 -12 c-12 -15
-12 -16 4 -10 9 3 17 2 17 -3 0 -11 -23 -13 -33 -3 -7 6 10 33 20 33 3 0 -1
-8 -8 -17z m256 7 c-27 -12 -43 -12 -25 0 8 5 22 9 30 9 10 0 8 -3 -5 -9z m75
6 c0 -2 -7 -7 -16 -10 -8 -3 -12 -2 -9 4 6 10 25 14 25 6z m90 -11 c0 -8 -4
-15 -8 -15 -5 0 -9 7 -9 15 0 8 4 15 9 15 4 0 8 -7 8 -15z m81 2 c-6 -8 -8
-17 -4 -20 3 -4 1 -7 -5 -7 -14 0 -14 2 -6 24 3 9 11 16 16 16 7 0 6 -5 -1
-13z m-706 -6 c3 -5 0 -13 -6 -17 -7 -4 -9 -3 -5 4 3 5 0 13 -6 15 -9 4 -10 6
-1 6 6 1 14 -3 18 -8z m808 -12 c-8 -8 -13 -7 -18 2 -5 8 -4 10 3 5 7 -4 12
-2 12 5 0 7 3 9 7 6 4 -4 2 -12 -4 -18z m120 0 c-8 -8 -13 -7 -18 2 -5 8 -4
10 3 5 7 -4 12 -2 12 5 0 7 3 9 7 6 4 -4 2 -12 -4 -18z m-1047 -1 c4 -7 3 -8
-4 -4 -7 4 -12 2 -12 -5 0 -7 -3 -10 -6 -6 -6 5 3 27 11 27 2 0 7 -5 11 -12z
m142 -14 c0 -17 -3 -22 -8 -13 -5 6 -6 18 -3 26 8 19 11 16 11 -13z m154 -16
c9 2 18 -1 21 -5 3 -5 -6 -8 -19 -8 -23 1 -53 29 -54 50 0 6 8 -1 18 -15 9
-15 24 -24 34 -22z m145 27 c4 -4 2 -5 -4 -1 -7 4 -13 2 -13 -4 0 -6 -4 -8
-10 -5 -5 3 -10 10 -10 15 0 10 27 7 37 -5z m223 5 c0 -5 -4 -10 -10 -10 -5 0
-10 5 -10 10 0 6 5 10 10 10 6 0 10 -4 10 -10z m311 -15 c3 2 6 -6 6 -18 2
-23 -6 -15 -28 28 -9 18 -9 19 4 3 8 -10 16 -16 18 -13z m-1027 -1 c3 -8 2
-12 -4 -9 -6 3 -10 10 -10 16 0 14 7 11 14 -7z m64 -8 c-10 -7 -14 -17 -10
-21 4 -5 1 -5 -6 -1 -11 6 -10 12 5 26 10 9 20 15 23 13 3 -3 -3 -10 -12 -17z
m50 -1 c0 -14 -4 -25 -8 -25 -5 0 -7 8 -5 18 2 9 4 20 4 25 2 18 9 4 9 -18z
m302 10 c0 -8 -4 -15 -10 -15 -5 0 -7 7 -4 15 4 8 8 15 10 15 2 0 4 -7 4 -15z
m34 0 c3 -8 1 -15 -4 -15 -6 0 -10 7 -10 15 0 8 2 15 4 15 2 0 6 -7 10 -15z
m63 -4 c0 -11 -5 -18 -9 -15 -4 3 -5 11 -1 19 7 21 12 19 10 -4z m38 0 c-3 -6
-11 -11 -16 -11 -5 0 -4 6 3 14 14 16 24 13 13 -3z m45 9 c0 -5 -2 -10 -4 -10
-3 0 -8 5 -11 10 -3 6 -1 10 4 10 6 0 11 -4 11 -10z m-340 -10 c0 -5 -4 -10
-10 -10 -5 0 -10 5 -10 10 0 6 5 10 10 10 6 0 10 -4 10 -10z m30 0 c0 -5 -5
-10 -11 -10 -5 0 -7 5 -4 10 3 6 8 10 11 10 2 0 4 -4 4 -10z m397 3 c-9 -8
-47 -11 -47 -4 0 5 11 9 25 9 14 0 24 -2 22 -5z m93 -4 c0 -4 -10 -6 -21 -4
-32 6 -34 13 -4 13 14 0 25 -4 25 -9z m40 1 c0 -5 -4 -10 -10 -10 -5 0 -10 5
-10 10 0 6 5 10 10 10 6 0 10 -4 10 -10z m30 0 c0 -5 -2 -10 -4 -10 -3 0 -8 5
-11 10 -3 6 -1 10 4 10 6 0 11 -4 11 -10z m79 0 c-6 -5 -18 -6 -26 -3 -19 8
-16 11 13 11 17 0 22 -3 13 -8z m171 -5 c0 -1 -12 -2 -26 -2 -17 0 -22 2 -13
7 10 7 39 3 39 -5z m-940 -6 c0 -5 5 -7 12 -3 7 4 8 3 4 -5 -6 -9 -12 -9 -24
1 -10 7 -19 14 -21 15 -2 2 3 3 12 3 10 0 17 -5 17 -11z m717 -4 c0 -8 -4 -15
-9 -15 -10 0 -11 14 -1 23 9 10 10 9 10 -8z m-833 -35 c-6 -5 -24 21 -24 34 0
6 6 1 14 -10 8 -10 12 -21 10 -24z m271 -15 c2 -26 1 -44 -2 -41 -3 3 -7 26
-8 51 -2 26 -1 44 2 41 3 -3 7 -26 8 -51z m182 23 c-4 -16 -2 -19 13 -15 10 2
25 -4 34 -14 9 -11 12 -19 6 -19 -5 0 -13 6 -17 13 -4 6 -17 12 -27 12 -14 0
-20 7 -20 27 -1 14 2 24 7 21 5 -3 6 -14 4 -25z m103 22 c0 -5 -4 -10 -10 -10
-5 0 -10 5 -10 10 0 6 5 10 10 10 6 0 10 -4 10 -10z m120 0 c0 -5 -4 -10 -10
-10 -5 0 -10 5 -10 10 0 6 5 10 10 10 6 0 10 -4 10 -10z m255 0 c3 -5 0 -12
-6 -16 -8 -4 -9 -3 -5 4 4 7 2 12 -3 12 -6 0 -11 -6 -12 -12 0 -10 -2 -10 -6
0 -2 6 -10 9 -15 6 -6 -4 -8 -3 -5 2 7 12 45 15 52 4z m44 -13 c0 -9 -2 -8 -6
1 -2 6 -10 9 -15 6 -7 -4 -8 -2 -4 5 9 13 26 5 25 -12z m-779 3 c0 -5 -5 -10
-11 -10 -5 0 -7 5 -4 10 3 6 8 10 11 10 2 0 4 -4 4 -10z m43 -9 c-4 -3 -11
-10 -15 -15 -4 -4 -6 1 -5 12 1 12 6 18 15 15 7 -3 10 -9 5 -12z m154 13 c-3
-3 -12 -4 -19 -1 -8 3 -5 6 6 6 11 1 17 -2 13 -5z m38 -4 c3 -6 -1 -7 -9 -4
-18 7 -21 14 -7 14 6 0 13 -4 16 -10z m165 0 c0 -5 -8 -10 -17 -10 -15 0 -16
2 -3 10 19 12 20 12 20 0z m160 0 c0 -5 -4 -10 -10 -10 -5 0 -10 5 -10 10 0 6
5 10 10 10 6 0 10 -4 10 -10z m318 -2 c-2 -6 -10 -13 -16 -14 -7 -1 -8 0 -2 3
5 2 8 9 4 14 -3 5 0 9 6 9 7 0 10 -5 8 -12z m-1115 -13 c-3 -9 -8 -14 -10 -11
-3 3 -2 9 2 15 9 16 15 13 8 -4z m92 5 c3 -6 -1 -7 -9 -4 -18 7 -21 14 -7 14
6 0 13 -4 16 -10z m65 -5 c0 -12 -19 -12 -23 0 -4 9 -1 12 9 8 7 -3 14 -7 14
-8z m195 5 c-3 -5 -12 -10 -18 -10 -7 0 -6 4 3 10 19 12 23 12 15 0z m208 4
c-7 -3 -9 -13 -6 -22 4 -14 3 -14 -5 -2 -12 16 -7 30 11 29 9 0 9 -2 0 -5z
m126 -11 c0 -11 -3 -13 -6 -5 -2 6 -10 9 -15 6 -7 -4 -8 -2 -4 4 11 18 26 14
25 -5z m67 5 c4 -6 3 -8 -4 -4 -5 3 -13 0 -15 -6 -3 -8 -6 -6 -6 5 -1 19 14
23 25 5z m93 -5 c0 -11 -3 -13 -6 -5 -2 6 -10 9 -15 6 -7 -4 -8 -2 -4 4 11 18
26 14 25 -5z m65 9 c3 -5 -1 -9 -9 -9 -8 0 -15 4 -15 9 0 4 4 8 9 8 6 0 12 -4
15 -8z m-514 -6 c0 -2 -6 -9 -14 -15 -11 -9 -16 -9 -22 0 -4 8 -3 9 4 5 7 -4
12 -2 12 3 0 6 5 11 10 11 6 0 10 -2 10 -4z m651 -19 c-10 -9 -11 -8 -5 6 3
10 9 15 12 12 3 -3 0 -11 -7 -18z m-971 4 c0 -6 -4 -12 -8 -15 -5 -3 -9 1 -9
9 0 8 4 15 9 15 4 0 8 -4 8 -9z m117 3 c-3 -3 -12 -4 -19 -1 -8 3 -5 6 6 6 11
1 17 -2 13 -5z m233 -13 c7 -14 7 -22 0 -26 -6 -4 -10 -3 -9 2 4 21 -2 34 -13
27 -7 -4 -8 -3 -4 4 10 16 14 15 26 -7z m40 15 c0 -2 -7 -7 -16 -10 -8 -3 -12
-2 -9 4 6 10 25 14 25 6z m186 -24 c-2 -9 2 -21 8 -25 7 -6 7 -7 -2 -5 -8 2
-13 7 -12 12 1 5 -4 13 -12 17 -10 7 -10 9 0 9 7 0 10 5 6 12 -4 6 -3 8 4 5 5
-4 9 -15 8 -25z m64 18 c0 -5 -4 -10 -10 -10 -5 0 -10 5 -10 10 0 6 5 10 10
10 6 0 10 -4 10 -10z m55 0 c-3 -5 4 -10 17 -11 l23 -1 -23 -6 c-13 -4 -23
-11 -22 -17 1 -5 -4 -11 -12 -13 -8 -2 -9 -1 -3 5 6 4 10 15 10 23 -1 17 4 30
11 30 3 0 2 -4 -1 -10z m105 0 c0 -5 -4 -10 -10 -10 -5 0 -10 5 -10 10 0 6 5
10 10 10 6 0 10 -4 10 -10z m100 -16 c0 -8 -4 -14 -10 -14 -5 0 -6 8 -3 18 6
15 5 16 -13 2 -18 -14 -18 -14 -5 2 15 19 31 15 31 -8z m46 14 c5 -7 3 -8 -5
-3 -9 5 -12 0 -9 -16 2 -19 -2 -24 -22 -26 -22 -1 -23 -1 -2 4 12 2 20 9 16
14 -6 10 1 39 10 39 3 0 8 -5 12 -12z m52 -14 c0 -17 -3 -22 -8 -13 -5 6 -6
18 -3 26 8 19 11 16 11 -13z m-243 7 c3 -5 2 -12 -3 -15 -5 -3 -9 1 -9 9 0 17
3 19 12 6z m65 -6 c0 -8 -4 -15 -10 -15 -5 0 -7 7 -4 15 4 8 8 15 10 15 2 0 4
-7 4 -15z m-853 -8 c2 -3 -8 -4 -22 -4 -14 0 -25 3 -25 8 0 7 38 4 47 -4z m82
3 c-6 -5 -18 -6 -26 -3 -19 8 -16 11 13 11 17 0 22 -3 13 -8z m49 -7 c-2 -10
-13 -17 -30 -17 -14 -1 -24 2 -21 7 3 5 14 6 25 4 14 -4 18 -2 14 9 -3 8 -1
14 5 14 6 0 9 -7 7 -17z m36 2 c-4 -8 -8 -15 -10 -15 -2 0 -4 7 -4 15 0 8 4
15 10 15 5 0 7 -7 4 -15z m65 5 c-6 -5 -18 -6 -26 -3 -19 8 -16 11 13 11 17 0
22 -3 13 -8z m101 -5 c0 -1 -12 -2 -26 -2 -17 0 -22 2 -13 7 10 7 39 3 39 -5z
m100 5 c0 -5 -2 -10 -4 -10 -3 0 -8 5 -11 10 -3 6 -1 10 4 10 6 0 11 -4 11
-10z m129 0 c-6 -5 -18 -6 -26 -3 -19 8 -16 11 13 11 17 0 22 -3 13 -8z m86
-11 c-4 -5 3 -9 15 -9 12 0 19 4 15 9 -3 5 -1 12 4 15 5 4 8 -2 7 -11 -2 -11
-12 -18 -26 -18 -14 0 -24 7 -26 18 -1 9 2 15 7 11 5 -3 7 -10 4 -15z m422 15
c-3 -3 -12 -4 -19 -1 -8 3 -5 6 6 6 11 1 17 -2 13 -5z m-262 -14 c-3 -6 4 -10
17 -11 13 0 17 -3 10 -6 -18 -7 -44 5 -37 17 3 5 8 10 11 10 3 0 2 -4 -1 -10z
m197 -4 c7 4 8 2 4 -5 -9 -13 -26 -5 -25 12 0 9 2 8 6 -1 2 -6 10 -9 15 -6z
m-972 -6 c0 -5 -4 -10 -10 -10 -5 0 -10 5 -10 10 0 6 5 10 10 10 6 0 10 -4 10
-10z m174 2 c2 -4 -4 -8 -15 -8 -10 0 -19 4 -19 8 0 4 6 8 14 8 8 0 17 -4 20
-8z m266 -2 c0 -5 -7 -7 -15 -4 -8 4 -15 8 -15 10 0 2 7 4 15 4 8 0 15 -4 15
-10z m110 6 c0 -2 -7 -7 -16 -10 -8 -3 -12 -2 -9 4 6 10 25 14 25 6z m195 -14
c-3 -3 -11 0 -18 7 -9 10 -8 11 6 5 10 -3 15 -9 12 -12z"/>
</g>
</svg>
